#N canvas 827 239 527 327 12;
#X obj 32 26 adc~, f 8;
#X obj 32 619 dac~, f 8;
#N canvas 0 22 450 300 thanh~ 0;
#X obj 38 34 inlet~;
#X obj 38 64 clip~ -3 3;
#X obj 53 104 *~;
#X obj 38 274 outlet~;
#X obj 108 104 sig~ 27;
#X obj 53 144 +~;
#X obj 53 214 /~;
#X obj 38 244 *~;
#X obj 93 144 *~ 9;
#X obj 93 184 +~;
#X text 141 174 // http://www.musicdsp.org/showone.php?id=238;
#X text 139 195 // y = x * (27 + x^2) / (27 + 9*x^2);
#X text 143 149 // pade-approximation of tanh function;
#X connect 0 0 1 0;
#X connect 1 0 2 0;
#X connect 1 0 2 1;
#X connect 1 0 7 0;
#X connect 2 0 5 0;
#X connect 2 0 8 0;
#X connect 4 0 5 1;
#X connect 4 0 9 1;
#X connect 5 0 6 0;
#X connect 6 0 7 1;
#X connect 7 0 3 0;
#X connect 8 0 9 0;
#X connect 9 0 6 1;
#X restore 265 404 pd thanh~;
#X obj 265 370 *~;
#X obj 265 484 /~;
#N canvas 0 22 450 300 thanh~ 0;
#X obj 38 34 inlet~;
#X obj 38 64 clip~ -3 3;
#X obj 53 104 *~;
#X obj 38 274 outlet~;
#X obj 108 104 sig~ 27;
#X obj 53 144 +~;
#X obj 53 214 /~;
#X obj 38 244 *~;
#X obj 93 144 *~ 9;
#X obj 93 184 +~;
#X text 141 174 // http://www.musicdsp.org/showone.php?id=238;
#X text 139 195 // y = x * (27 + x^2) / (27 + 9*x^2);
#X text 143 149 // pade-approximation of tanh function;
#X connect 0 0 1 0;
#X connect 1 0 2 0;
#X connect 1 0 2 1;
#X connect 1 0 7 0;
#X connect 2 0 5 0;
#X connect 2 0 8 0;
#X connect 4 0 5 1;
#X connect 4 0 9 1;
#X connect 5 0 6 0;
#X connect 6 0 7 1;
#X connect 7 0 3 0;
#X connect 8 0 9 0;
#X connect 9 0 6 1;
#X restore 442 404 pd thanh~;
#X obj 442 302 sig~;
#N canvas 0 22 450 300 thanh~ 0;
#X obj 38 34 inlet~;
#X obj 38 64 clip~ -3 3;
#X obj 53 104 *~;
#X obj 38 274 outlet~;
#X obj 108 104 sig~ 27;
#X obj 53 144 +~;
#X obj 53 214 /~;
#X obj 38 244 *~;
#X obj 93 144 *~ 9;
#X obj 93 184 +~;
#X text 141 174 // http://www.musicdsp.org/showone.php?id=238;
#X text 139 195 // y = x * (27 + x^2) / (27 + 9*x^2);
#X text 143 149 // pade-approximation of tanh function;
#X connect 0 0 1 0;
#X connect 1 0 2 0;
#X connect 1 0 2 1;
#X connect 1 0 7 0;
#X connect 2 0 5 0;
#X connect 2 0 8 0;
#X connect 4 0 5 1;
#X connect 4 0 9 1;
#X connect 5 0 6 0;
#X connect 6 0 7 1;
#X connect 7 0 3 0;
#X connect 8 0 9 0;
#X connect 9 0 6 1;
#X restore 352 404 pd thanh~;
#X obj 352 370 *~;
#X obj 352 484 /~;
#X obj 442 25 r saturation @hv_param 0 100 0;
#X obj 442 116 / 100;
#X obj 442 151 * 3;
#X obj 80 231 == 0;
#X obj 32 303 *~;
#X obj 70 303 *~;
#X obj 362 230 > 0;
#X obj 265 302 *~;
#X obj 352 302 *~;
#X text 524 401 thanh~ approximation from heavlib;
#X text 524 425 https://github.com/Wasted-Audio/heavylib;
#X text 126 24 Basic Softclipper;
#X text 126 228 pass original signal through if saturation is 0, f 16;
#X text 404 227 only route through if saturation if > 0, f 16;
#X connect 0 0 14 0;
#X connect 0 0 17 0;
#X connect 0 1 15 0;
#X connect 0 1 18 0;
#X connect 2 0 4 0;
#X connect 3 0 2 0;
#X connect 4 0 1 0;
#X connect 5 0 4 1;
#X connect 5 0 9 1;
#X connect 6 0 3 1;
#X connect 6 0 5 0;
#X connect 6 0 8 1;
#X connect 7 0 9 0;
#X connect 8 0 7 0;
#X connect 9 0 1 1;
#X connect 10 0 11 0;
#X connect 10 0 16 0;
#X connect 11 0 12 0;
#X connect 12 0 6 0;
#X connect 12 0 16 1;
#X connect 13 0 14 1;
#X connect 13 0 15 1;
#X connect 14 0 1 0;
#X connect 15 0 1 1;
#X connect 16 0 18 1;
#X connect 16 0 17 1;
#X connect 17 0 3 0;
#X connect 18 0 8 0;
